<svg data-v-423bf9ae="" xmlns="http://www.w3.org/2000/svg" viewBox="0 0 239.93944216114346 60" class="font"><!----><!----><!----><g data-v-423bf9ae="" id="d53b57a6-1ddc-4e3a-8064-e6b55f144d57" fill="white" transform="matrix(6.054490506946714,0,0,6.054490506946714,-5.4490414956626125,-4.2381440575479346)"><path d="M5.19 1.40C8.46 1.40 8.46 6.43 5.19 6.43L1.65 6.43L1.65 1.40ZM5.19 7.11C9.45 7.11 9.45 0.70 5.19 0.70C3.77 0.70 2.32 0.70 0.90 0.70L0.90 10.50L1.65 10.50L1.65 7.11ZM16.17 10.50L16.17 3.57L15.48 3.57L15.48 7.42C15.48 8.85 14.49 9.93 13.06 9.94C11.56 9.95 10.60 9.11 10.60 7.55L10.60 3.57L9.91 3.57L9.91 7.56C9.91 9.48 11.19 10.61 13.03 10.61C14 10.60 14.97 10.21 15.50 9.25L15.50 10.50ZM17.98 0.70L17.98 10.50L18.66 10.50L18.66 0.70ZM25.75 4.40C25.06 3.75 24.18 3.47 23.17 3.47C21.77 3.46 20.41 4.05 20.43 5.40C20.44 6.79 21.77 7.04 23.11 7.27C24.25 7.45 25.40 7.64 25.37 8.64C25.33 9.73 24.05 9.95 23.21 9.95C22.29 9.95 21.25 9.60 20.68 8.78L20.17 9.23C20.78 10.15 21.98 10.61 23.20 10.61C24.42 10.61 26.00 10.21 26.04 8.68C26.11 7.07 24.42 6.86 23.18 6.65C22.32 6.50 21.11 6.31 21.08 5.39C21.06 4.51 22.09 4.10 23.17 4.12C23.94 4.12 24.63 4.23 25.33 4.84ZM33.53 3.58L33.53 5.10C32.96 4.02 31.82 3.50 30.70 3.50C28.77 3.50 27.19 4.93 27.19 7.04C27.19 9.16 28.77 10.61 30.70 10.61C31.82 10.61 32.86 10.11 33.53 9.03L33.53 10.50L34.22 10.50C34.22 8.19 34.22 5.89 34.22 3.58ZM30.70 4.16C34.55 4.16 34.55 9.94 30.70 9.94C29.13 9.94 27.87 8.78 27.87 7.04C27.87 5.31 29.13 4.16 30.70 4.16ZM36.08 3.58L36.08 10.50L36.76 10.50L36.76 6.47C36.76 5.21 37.76 4.17 39.05 4.16C39.45 4.16 39.86 4.26 40.22 4.48L40.53 3.92C40.07 3.64 39.56 3.50 39.05 3.51C38.16 3.51 37.18 3.88 36.75 4.82L36.72 3.58Z"></path></g><!----><!----></svg>